<svg width="20" height="20" viewBox="0 0 20 20" fill="none" xmlns="http://www.w3.org/2000/svg">
<g id="tabler:home-filled">
<path id="Vector" d="M10.5892 1.91098L18.0892 9.41098C18.6142 9.93598 18.2426 10.8335 17.5001 10.8335H16.6667V15.8335C16.6667 16.4965 16.4033 17.1324 15.9345 17.6012C15.4657 18.0701 14.8298 18.3335 14.1667 18.3335H13.3334V12.5001C13.3334 11.8625 13.0898 11.2489 12.6523 10.7849C12.2149 10.321 11.6166 10.0417 10.9801 10.0043L10.8334 10.0001H9.16674C8.5037 10.0001 7.86781 10.2635 7.39897 10.7324C6.93013 11.2012 6.66674 11.8371 6.66674 12.5001V18.3335H5.83341C5.17037 18.3335 4.53448 18.0701 4.06564 17.6012C3.5968 17.1324 3.33341 16.4965 3.33341 15.8335V10.8335H2.50007C1.75841 10.8335 1.38591 9.93598 1.91091 9.41098L9.41091 1.91098C9.56718 1.75475 9.7791 1.66699 10.0001 1.66699C10.221 1.66699 10.433 1.75475 10.5892 1.91098ZM10.8334 11.6668C11.0544 11.6668 11.2664 11.7546 11.4227 11.9109C11.5789 12.0672 11.6667 12.2791 11.6667 12.5001V18.3335H8.33341V12.5001C8.33343 12.296 8.40837 12.099 8.544 11.9465C8.67964 11.794 8.86653 11.6965 9.06924 11.6726L9.16674 11.6668H10.8334Z" fill="#F9F8FF"/>
</g>
</svg>
